<?xml version="1.0" standalone="no"?>
<!DOCTYPE svg PUBLIC "-//W3C//DTD SVG 20010904//EN"
 "http://www.w3.org/TR/2001/REC-SVG-20010904/DTD/svg10.dtd">
<svg version="1.0" xmlns="http://www.w3.org/2000/svg"
 width="1500.000000pt" height="1500.000000pt" viewBox="0 0 1500.000000 1500.000000"
 preserveAspectRatio="xMidYMid meet">
<metadata>
Created by potrace 1.14, written by Peter Selinger 2001-2017
</metadata>
<g transform="translate(0.000000,1500.000000) scale(0.100000,-0.100000)"
fill="#000000" stroke="none">
<path d="M0 14990 c0 -7 2507 -10 7500 -10 4993 0 7500 3 7500 10 0 7 -2507
10 -7500 10 -4993 0 -7500 -3 -7500 -10z"/>
<path d="M450 7490 l0 -7040 7050 0 7050 0 0 7040 0 7040 -7050 0 -7050 0 0
-7040z m5305 1785 c188 -411 1786 -3919 1792 -3933 4 -10 -59 -12 -311 -10
l-317 3 -135 305 c-74 168 -178 403 -230 523 l-96 217 -1117 0 -1117 0 -230
-522 -230 -523 -307 -3 c-169 -1 -307 1 -307 6 0 4 60 140 134 302 74 162 497
1096 941 2075 444 979 811 1788 817 1798 8 16 31 17 304 15 l295 -3 114 -250z
m5535 -5 l0 -260 -1185 0 -1185 0 0 -645 0 -645 1055 0 1055 0 0 -255 0 -255
-1055 0 -1055 0 0 -680 0 -680 1225 0 1225 0 0 -260 0 -260 -1525 0 -1525 0 0
2100 0 2100 1485 0 1485 0 0 -260z"/>
<path d="M5321 8869 c-10 -24 -213 -484 -450 -1022 -237 -538 -431 -980 -431
-983 0 -2 406 -4 901 -4 854 0 901 1 896 18 -6 20 -887 2025 -893 2031 -2 2
-12 -16 -23 -40z"/>
</g>
</svg>
