<?xml version="1.0" encoding="UTF-8" standalone="no"?>
<!-- Created with Inkscape (http://www.inkscape.org/) -->

<svg
   width="833.90625mm"
   height="839.29462mm"
   viewBox="0 0 833.90625 839.29462"
   version="1.1"
   id="svg1"
   sodipodi:docname="circle-pattern.svg"
   inkscape:version="1.3.2 (091e20e, 2023-11-25)"
   xmlns:inkscape="http://www.inkscape.org/namespaces/inkscape"
   xmlns:sodipodi="http://sodipodi.sourceforge.net/DTD/sodipodi-0.dtd"
   xmlns="http://www.w3.org/2000/svg"
   xmlns:svg="http://www.w3.org/2000/svg">
  <sodipodi:namedview
     id="namedview1"
     pagecolor="#ffffff"
     bordercolor="#000000"
     borderopacity="0.25"
     inkscape:showpageshadow="2"
     inkscape:pageopacity="0.0"
     inkscape:pagecheckerboard="0"
     inkscape:deskcolor="#d1d1d1"
     inkscape:document-units="mm"
     inkscape:zoom="0.11126075"
     inkscape:cx="975.18663"
     inkscape:cy="2089.6856"
     inkscape:window-width="760"
     inkscape:window-height="916"
     inkscape:window-x="756"
     inkscape:window-y="38"
     inkscape:window-maximized="0"
     inkscape:current-layer="svg1" />
  <defs
     id="defs1">
    <rect
       x="181.22292"
       y="189.75375"
       width="18.906208"
       height="13.603246"
       id="rect17" />
  </defs>
  <g
     id="g6"
     style="stroke:#fff9db;stroke-opacity:1">
    <g
       id="g2"
       style="stroke:#fff9db;stroke-opacity:1">
      <g
         id="layer1"
         transform="translate(-5.7690396,-5.4500699)"
         style="stroke:#fff9db;stroke-opacity:1;fill:none">
        <path
           style="fill:none;fill-opacity:0.868526;stroke:#fff9db;stroke-width:0.69540191;stroke-dasharray:none;stroke-opacity:1"
           id="path23"
           d="M 30.861015,49.891049 C 83.803865,11.118775 -44.24766,11.603498 8.9872031,49.973849 62.222067,88.3442 22.19097,-33.29025 2.1490755,29.196205 -17.892819,91.682659 85.418128,16.023712 19.796692,16.272114 -45.824744,16.520515 58.056029,91.395164 37.541647,29.062231 17.027264,-33.270703 -22.081835,88.663322 30.861015,49.891049 Z"
           transform="matrix(16.919103,0,0,17.065644,85.926117,-169.49128)" />
        <ellipse
           style="fill:none;fill-opacity:0;stroke:#fff9db;stroke-width:10;stroke-dasharray:none;stroke-opacity:1"
           id="path25"
           cx="422.72217"
           cy="425.09738"
           rx="412.67383"
           ry="415.36801" />
      </g>
      <g
         id="g1"
         transform="matrix(-0.12330157,-0.56124442,0.56405017,-0.12291259,230.90713,713.64374)"
         style="stroke:#fff9db;stroke-width:17.3624371;stroke-dasharray:none;stroke-opacity:1">
        <path
           style="fill:none;fill-opacity:0.868526;stroke:#fff9db;stroke-width:1.02178772;stroke-dasharray:none;stroke-opacity:1"
           id="path1"
           d="M 30.861015,49.891049 C 83.803865,11.118775 -44.24766,11.603498 8.9872031,49.973849 62.222067,88.3442 22.19097,-33.29025 2.1490755,29.196205 -17.892819,91.682659 85.418128,16.023712 19.796692,16.272114 -45.824744,16.520515 58.056029,91.395164 37.541647,29.062231 17.027264,-33.270703 -22.081835,88.663322 30.861015,49.891049 Z"
           transform="matrix(16.919103,0,0,17.065644,85.926117,-169.49128)" />
        <ellipse
           style="fill:none;fill-opacity:0;stroke:#fff9db;stroke-width:17.3624371;stroke-dasharray:none;stroke-opacity:1"
           id="ellipse1"
           cx="422.72217"
           cy="425.09738"
           rx="412.67383"
           ry="415.36801" />
      </g>
    </g>
    <g
       id="g5"
       transform="rotate(-26.541355,416.95313,419.64731)"
       style="stroke:#fff9db;stroke-opacity:1">
      <g
         id="g3"
         transform="translate(-5.7690396,-5.4500699)"
         style="fill:none;stroke:#fff9db;stroke-opacity:1">
        <path
           style="fill:none;fill-opacity:0.868526;stroke:#fff9db;stroke-width:0.695402;stroke-dasharray:none;stroke-opacity:1"
           id="path2"
           d="M 30.861015,49.891049 C 83.803865,11.118775 -44.24766,11.603498 8.9872031,49.973849 62.222067,88.3442 22.19097,-33.29025 2.1490755,29.196205 -17.892819,91.682659 85.418128,16.023712 19.796692,16.272114 -45.824744,16.520515 58.056029,91.395164 37.541647,29.062231 17.027264,-33.270703 -22.081835,88.663322 30.861015,49.891049 Z"
           transform="matrix(16.919103,0,0,17.065644,85.926117,-169.49128)" />
        <ellipse
           style="fill:none;fill-opacity:0;stroke:#fff9db;stroke-width:10;stroke-dasharray:none;stroke-opacity:1"
           id="ellipse2"
           cx="422.72217"
           cy="425.09738"
           rx="412.67383"
           ry="415.36801" />
      </g>
      <g
         id="g4"
         transform="matrix(-0.12330157,-0.56124442,0.56405017,-0.12291259,230.90713,713.64374)"
         style="stroke:#fff9db;stroke-width:17.3624;stroke-dasharray:none;stroke-opacity:1">
        <path
           style="fill:none;fill-opacity:0.868526;stroke:#fff9db;stroke-width:1.02179;stroke-dasharray:none;stroke-opacity:1"
           id="path3"
           d="M 30.861015,49.891049 C 83.803865,11.118775 -44.24766,11.603498 8.9872031,49.973849 62.222067,88.3442 22.19097,-33.29025 2.1490755,29.196205 -17.892819,91.682659 85.418128,16.023712 19.796692,16.272114 -45.824744,16.520515 58.056029,91.395164 37.541647,29.062231 17.027264,-33.270703 -22.081835,88.663322 30.861015,49.891049 Z"
           transform="matrix(16.919103,0,0,17.065644,85.926117,-169.49128)" />
        <ellipse
           style="fill:none;fill-opacity:0;stroke:#fff9db;stroke-width:17.3624;stroke-dasharray:none;stroke-opacity:1"
           id="ellipse3"
           cx="422.72217"
           cy="425.09738"
           rx="412.67383"
           ry="415.36801" />
      </g>
    </g>
  </g>
  <g
     id="g20"
     style="stroke:#fff9db;stroke-opacity:1"
     transform="matrix(0.34950129,-0.03371693,0.03371693,0.34950129,260.11112,283.44958)">
    <g
       id="g16"
       style="stroke:#fff9db;stroke-opacity:1">
      <g
         id="g14"
         transform="translate(-5.7690396,-5.4500699)"
         style="fill:none;stroke:#fff9db;stroke-opacity:1">
        <path
           style="fill:none;fill-opacity:0.868526;stroke:#fff9db;stroke-width:0.695402;stroke-dasharray:none;stroke-opacity:1"
           id="path14"
           d="M 30.861015,49.891049 C 83.803865,11.118775 -44.24766,11.603498 8.9872031,49.973849 62.222067,88.3442 22.19097,-33.29025 2.1490755,29.196205 -17.892819,91.682659 85.418128,16.023712 19.796692,16.272114 -45.824744,16.520515 58.056029,91.395164 37.541647,29.062231 17.027264,-33.270703 -22.081835,88.663322 30.861015,49.891049 Z"
           transform="matrix(16.919103,0,0,17.065644,85.926117,-169.49128)" />
        <ellipse
           style="fill:none;fill-opacity:0;stroke:#fff9db;stroke-width:10;stroke-dasharray:none;stroke-opacity:1"
           id="ellipse14"
           cx="422.72217"
           cy="425.09738"
           rx="412.67383"
           ry="415.36801" />
      </g>
      <g
         id="g15"
         transform="matrix(-0.12330157,-0.56124442,0.56405017,-0.12291259,230.90713,713.64374)"
         style="stroke:#fff9db;stroke-width:17.3624;stroke-dasharray:none;stroke-opacity:1">
        <path
           style="fill:none;fill-opacity:0.868526;stroke:#fff9db;stroke-width:1.02179;stroke-dasharray:none;stroke-opacity:1"
           id="path15"
           d="M 30.861015,49.891049 C 83.803865,11.118775 -44.24766,11.603498 8.9872031,49.973849 62.222067,88.3442 22.19097,-33.29025 2.1490755,29.196205 -17.892819,91.682659 85.418128,16.023712 19.796692,16.272114 -45.824744,16.520515 58.056029,91.395164 37.541647,29.062231 17.027264,-33.270703 -22.081835,88.663322 30.861015,49.891049 Z"
           transform="matrix(16.919103,0,0,17.065644,85.926117,-169.49128)" />
        <ellipse
           style="fill:none;fill-opacity:0;stroke:#fff9db;stroke-width:17.3624;stroke-dasharray:none;stroke-opacity:1"
           id="ellipse15"
           cx="422.72217"
           cy="425.09738"
           rx="412.67383"
           ry="415.36801" />
      </g>
    </g>
    <g
       id="g19"
       transform="rotate(-26.541355,416.95313,419.64731)"
       style="stroke:#fff9db;stroke-opacity:1">
      <g
         id="g17"
         transform="translate(-5.7690396,-5.4500699)"
         style="fill:none;stroke:#fff9db;stroke-opacity:1">
        <path
           style="fill:none;fill-opacity:0.868526;stroke:#fff9db;stroke-width:0.695402;stroke-dasharray:none;stroke-opacity:1"
           id="path16"
           d="M 30.861015,49.891049 C 83.803865,11.118775 -44.24766,11.603498 8.9872031,49.973849 62.222067,88.3442 22.19097,-33.29025 2.1490755,29.196205 -17.892819,91.682659 85.418128,16.023712 19.796692,16.272114 -45.824744,16.520515 58.056029,91.395164 37.541647,29.062231 17.027264,-33.270703 -22.081835,88.663322 30.861015,49.891049 Z"
           transform="matrix(16.919103,0,0,17.065644,85.926117,-169.49128)" />
        <ellipse
           style="fill:none;fill-opacity:0;stroke:#fff9db;stroke-width:10;stroke-dasharray:none;stroke-opacity:1"
           id="ellipse16"
           cx="422.72217"
           cy="425.09738"
           rx="412.67383"
           ry="415.36801" />
      </g>
      <g
         id="g18"
         transform="matrix(-0.12330157,-0.56124442,0.56405017,-0.12291259,230.90713,713.64374)"
         style="stroke:#fff9db;stroke-width:17.3624;stroke-dasharray:none;stroke-opacity:1">
        <path
           style="fill:none;fill-opacity:0.868526;stroke:#fff9db;stroke-width:1.02179;stroke-dasharray:none;stroke-opacity:1"
           id="path17"
           d="M 30.861015,49.891049 C 83.803865,11.118775 -44.24766,11.603498 8.9872031,49.973849 62.222067,88.3442 22.19097,-33.29025 2.1490755,29.196205 -17.892819,91.682659 85.418128,16.023712 19.796692,16.272114 -45.824744,16.520515 58.056029,91.395164 37.541647,29.062231 17.027264,-33.270703 -22.081835,88.663322 30.861015,49.891049 Z"
           transform="matrix(16.919103,0,0,17.065644,85.926117,-169.49128)" />
        <ellipse
           style="fill:none;fill-opacity:0;stroke:#fff9db;stroke-width:17.3624;stroke-dasharray:none;stroke-opacity:1"
           id="ellipse17"
           cx="422.72217"
           cy="425.09738"
           rx="412.67383"
           ry="415.36801" />
      </g>
    </g>
  </g>
</svg>
